<svg width="244" xmlns="http://www.w3.org/2000/svg" height="368.888" id="screenshot-b89a736c-cf93-801c-8007-170e107f316f" viewBox="0 -17.822 244 368.888" xmlns:xlink="http://www.w3.org/1999/xlink" fill="none" version="1.1"><g id="shape-b89a736c-cf93-801c-8007-170e107f316f" rx="0" ry="0" style="fill: rgb(0, 0, 0);"><g id="shape-b89a736c-cf93-801c-8007-170e1080a054" style="display: none;"><g class="fills" id="fills-b89a736c-cf93-801c-8007-170e1080a054"><rect width="243.99585940149655" height="326.9788908663554" x="0.0024741802928929246" transform="matrix(0.950773, -0.309889, 0.309889, 0.950773, -44.659475, 45.855050)" style="fill: none;" ry="0" fill="none" rx="0" y="0.00511294806085516"/></g></g><g id="shape-b89a736c-cf93-801c-8007-170e1080a055"><defs style="fill: rgb(0, 0, 0);"><g id="shape-b89a736c-cf93-801c-8007-170e1080fda9"><style>#shape-b89a736c-cf93-801c-8007-170e107f316f{ .cls-1 {
        fill: #009590;
      }

      .cls-2 {
        fill: #fff;
      }

      .cls-3 {
        fill: #3a3a3a;
      }

      .cls-4 {
        fill: #ffcd71;
      } }</style></g></defs></g><g id="shape-b89a736c-cf93-801c-8007-170e10810646"><g class="fills" id="fills-b89a736c-cf93-801c-8007-170e10810646"><path d="M58.73440170288086,312.8899230957031C72.44790649414062,311.7367248535156,99.20718383789062,288.2879943847656,100.56967163085938,254.58094787597656C101.94692993164062,220.8690948486328,92.70132446289062,205.1988067626953,91.32406616210938,185.35511779785156C90.27548217773438,170.2475128173828,96.29873657226562,127.71529388427734,97.07070922851562,114.96956634521484C98.00491333007812,99.3963851928711,96.60397338867188,80.89022064208984,89.50735473632812,80.4284896850586C80.61447143554688,79.8463363647461,37.754451751708984,117.27730560302734,31.141477584838867,207.82740783691406C24.523588180541992,298.3627014160156,43.005489349365234,314.2075500488281,58.73440170288086,312.8899230957031Z" class="cls-1"/></g></g><g id="shape-b89a736c-cf93-801c-8007-170e10816d39"><g class="fills" id="fills-b89a736c-cf93-801c-8007-170e10816d39"><path d="M63.61605453491211,183.2218780517578C59.68905258178711,217.2721710205078,57.486995697021484,247.3454132080078,56.860408782958984,275.1482238769531C56.218624114990234,303.7606506347656,57.200557708740234,330.2512512207031,59.86330795288086,355.7014465332031L58.73513412475586,356.0692443847656C56.02889633178711,330.4853820800781,55.03792953491211,303.8663635253906,55.700374603271484,275.1158752441406C56.332149505615234,247.2783966064453,58.53927230834961,217.1707305908203,62.47158432006836,183.0858917236328C62.51333236694336,182.76039123535156,62.80111312866211,182.5352325439453,63.12191390991211,182.56202697753906C63.44259262084961,182.58876037597656,63.67263412475586,182.89137268066406,63.64577865600586,183.2122344970703Z" class="cls-3"/></g></g><g id="shape-b89a736c-cf93-801c-8007-170e10816d3a"><g class="fills" id="fills-b89a736c-cf93-801c-8007-170e10816d3a"><path d="M182.48635864257812,160.1407012939453L156.84506225585938,324.1083068847656L155.59811401367188,324.5146789550781L181.34225463867188,159.9553985595703C181.39871215820312,159.6250762939453,181.69143676757812,159.4147491455078,182.01705932617188,159.45643615722656C182.34262084960938,159.49806213378906,182.55776977539062,159.80555725097656,182.49642944335938,160.1210479736328Z" class="cls-2"/></g></g><g id="shape-b89a736c-cf93-801c-8007-170e1081c963"><g class="fills" id="fills-b89a736c-cf93-801c-8007-170e1081c963"><ellipse cx="185.82212065269005" cy="157.07107469436096" rx="12.20700021636253" ry="12.209039333782812" transform="matrix(-0.082289, -0.996608, 0.996602, -0.082373, 44.576007, 355.201369)" class="cls-4"/></g></g><g id="shape-b89a736c-cf93-801c-8007-170e1082309b"><g class="fills" id="fills-b89a736c-cf93-801c-8007-170e1082309b"><path d="M186.63589477539062,247.8396759033203C180.62179565429688,254.52821350097656,173.12637329101562,257.5786437988281,169.87271118164062,254.64967346191406C166.61898803710938,251.72059631347656,168.85867309570312,243.9308624267578,174.86276245117188,237.2619171142578C180.87686157226562,230.5734405517578,188.37234497070312,227.52284240722656,191.62588500976562,230.4518585205078C194.87966918945312,233.3810577392578,192.63992309570312,241.17066955566406,186.63589477539062,247.8396759033203Z" class="cls-1"/></g></g><g id="shape-b89a736c-cf93-801c-8007-170e1082403d"><g class="fills" id="fills-b89a736c-cf93-801c-8007-170e1082403d"><path d="M156.53695678710938,286.9889221191406C160.36776733398438,295.1151428222656,160.25393676757812,303.2297668457031,156.29171752929688,305.0796203613281C152.33438110351562,306.9438781738281,146.02926635742188,301.8573303222656,142.19833374023438,293.7311096191406C138.36746215820312,285.6050109863281,138.48129272460938,277.4902648925781,142.44357299804688,275.6406555175781C146.40090942382812,273.7761535644531,152.70602416992188,278.8629455566406,156.53695678710938,286.9889221191406Z" class="cls-1"/></g></g><g id="shape-b89a736c-cf93-801c-8007-170e1082403e"><g class="fills" id="fills-b89a736c-cf93-801c-8007-170e1082403e"><path d="M157.62527465820312,31.366722106933594C150.73489379882812,67.7619857788086,144.42086791992188,105.06941986083984,138.71408081054688,143.1313018798828C129.28518676757812,206.04811096191406,121.53054809570312,271.0790100097656,115.49917602539062,337.5679016113281L114.28195190429688,337.9646301269531C120.29849243164062,271.4806213378906,128.04318237304688,206.46937561035156,137.45236206054688,143.54249572753906C143.18539428710938,105.25862884521484,149.51547241210938,67.74898529052734,156.45175170898438,31.141685485839844C156.51309204101562,30.826255798339844,156.82077026367188,30.610984802246094,157.13626098632812,30.672264099121094C157.45175170898438,30.733604431152344,157.66702270507812,31.041099548339844,157.60556030273438,31.356651306152344Z" class="cls-3"/></g></g><g id="shape-b89a736c-cf93-801c-8007-170e1082afd2"><g class="fills" id="fills-b89a736c-cf93-801c-8007-170e1082afd2"><ellipse cx="156.05574476415364" cy="30.247130220151462" rx="12.20757074754755" ry="12.208468871228547" transform="matrix(0.264923, -0.964270, 0.964315, 0.264757, 85.545283, 172.718816)" class="cls-4"/></g></g><g id="shape-b89a736c-cf93-801c-8007-170e1082afd3"><g class="fills" id="fills-b89a736c-cf93-801c-8007-170e1082afd3"><path d="M129.82736206054688,150.42774963378906C134.86270141601562,157.86573791503906,136.01828002929688,165.89515686035156,132.39767456054688,168.3394317626953C128.77706909179688,170.78370666503906,121.74893188476562,166.75343322753906,116.71359252929688,159.31544494628906C111.67843627929688,151.8773956298828,110.52273559570312,143.8480987548828,114.14334106445312,141.4037628173828C117.76400756835938,138.95960998535156,124.79220581054688,142.9897003173828,129.82736206054688,150.42774963378906Z" class="cls-1"/></g></g><g id="shape-b89a736c-cf93-801c-8007-170e1082afd4"><g class="fills" id="fills-b89a736c-cf93-801c-8007-170e1082afd4"><path d="M142.28475952148438,1.379844307899475C148.82003784179688,9.691612243652344,151.55075073242188,18.422508239746094,148.40390014648438,20.909446716308594C145.25210571289062,23.381553649902344,137.40908813476562,18.664634704589844,130.87380981445312,10.352745056152344C124.33853149414062,2.0409770011901855,121.60775756835938,-6.6899189949035645,124.75479125976562,-9.176856994628906C127.90164184570312,-11.663795471191406,135.74960327148438,-6.9320454597473145,142.28475952148438,1.379844307899475Z" class="cls-2"/></g></g><g id="shape-b89a736c-cf93-801c-8007-170e1082d230"><g class="fills" id="fills-b89a736c-cf93-801c-8007-170e1082d230"><path d="M123.80630493164062,26.102622985839844C134.26815795898438,24.646568298339844,143.20571899414062,26.675315856933594,143.76150512695312,30.647972106933594C144.31735229492188,34.620506286621094,136.27474975585938,39.015098571777344,125.81283569335938,40.471214294433594C115.35110473632812,41.927330017089844,106.41354370117188,39.898582458496094,105.85769653320312,35.925926208496094C105.30184936523438,31.953330993652344,113.34451293945312,27.558799743652344,123.80630493164062,26.102622985839844Z" class="cls-2"/></g></g><g id="shape-b89a736c-cf93-801c-8007-170e1082d231"><g class="fills" id="fills-b89a736c-cf93-801c-8007-170e1082d231"><path d="M129.95437622070312,49.399070739746094C137.01803588867188,41.547508239746094,145.15328979492188,37.336204528808594,148.14688110351562,40.021629333496094C151.12088012695312,42.697166442871094,147.81460571289062,51.245018005371094,140.75094604492188,59.096580505371094C133.68722534179688,66.9481430053711,125.55209350585938,71.1594467163086,122.55844116210938,68.4738998413086C119.58444213867188,65.7984848022461,122.89065551757812,57.250633239746094,129.95437622070312,49.399070739746094Z" class="cls-2"/></g></g><g id="shape-b89a736c-cf93-801c-8007-170e1082d232"><g class="fills" id="fills-b89a736c-cf93-801c-8007-170e1082d232"><path d="M165.27047729492188,61.825889587402344C159.41488647460938,53.029747009277344,157.37655639648438,44.105979919433594,160.72415161132812,41.882041931152344C164.07180786132812,39.658103942871094,171.51077270507812,44.999290466308594,177.36630249023438,53.795188903808594C183.22189331054688,62.591270446777344,185.26016235351562,71.51509857177734,181.91256713867188,73.73909759521484C178.56509399414062,75.96297454833984,171.12600708007812,70.6218490600586,165.27047729492188,61.825889587402344Z" class="cls-2"/></g></g><g id="shape-b89a736c-cf93-801c-8007-170e1082d233"><g class="fills" id="fills-b89a736c-cf93-801c-8007-170e1082d233"><path d="M185.70376586914062,43.755393981933594C175.37008666992188,41.574180603027344,167.66183471679688,36.616355895996094,168.48806762695312,32.702232360839844C169.31417846679688,28.788169860839844,178.37844848632812,27.377159118652344,188.71231079101562,29.558311462402344C199.04592895507812,31.739524841308594,206.75399780273438,36.697349548339844,205.92794799804688,40.611351013183594C205.10171508789062,44.525535583496094,196.03744506835938,45.936607360839844,185.70376586914062,43.755393981933594Z" class="cls-2"/></g></g><g id="shape-b89a736c-cf93-801c-8007-170e108315cf"><g class="fills" id="fills-b89a736c-cf93-801c-8007-170e108315cf"><path d="M186.26443481445312,17.664939880371094C177.92129516601562,24.160423278808594,169.17422485351562,26.847251892089844,166.70211791992188,23.696250915527344C164.24484252929688,20.540306091308594,169.00265502929688,12.717918395996094,177.34579467773438,6.2224955558776855C185.68899536132812,-0.2729877829551697,194.43600463867188,-2.9598164558410645,196.90811157226562,0.19130665063858032C199.36526489257812,3.3470683097839355,194.60757446289062,11.169517517089844,186.26443481445312,17.664939880371094Z" class="cls-2"/></g></g><g id="shape-b89a736c-cf93-801c-8007-170e108315d0"><g class="fills" id="fills-b89a736c-cf93-801c-8007-170e108315d0"><path d="M167.85952758789062,0.6457133889198303C165.67684936523438,10.978111267089844,160.71737670898438,18.685508728027344,156.80276489257812,17.860008239746094C152.88827514648438,17.034324645996094,151.47793579101562,7.9715800285339355,153.66061401367188,-2.3608174324035645C155.84329223632812,-12.693153381347656,160.80276489257812,-20.400733947753906,164.71725463867188,-19.575050354003906C168.63186645507812,-18.749488830566406,170.04214477539062,-9.686744689941406,167.85952758789062,0.6457133889198303Z" class="cls-2"/></g></g></g></svg>