<svg xmlns="http://www.w3.org/2000/svg" version="1.1" xmlns:xlink="http://www.w3.org/1999/xlink" width="200" height="200"><svg xmlns="http://www.w3.org/2000/svg" version="1.1" xmlns:xlink="http://www.w3.org/1999/xlink" width="200" height="200"><svg xmlns="http://www.w3.org/2000/svg" version="1.1" xmlns:xlink="http://www.w3.org/1999/xlink" viewBox="0 0 200 200"><rect width="200" height="200" fill="url('#gradient')"></rect><defs><linearGradient id="gradient" gradientTransform="rotate(45 0.5 0.5)"><stop offset="0%" stop-color="#fcf6bd"></stop><stop offset="100%" stop-color="#fcf6bd"></stop></linearGradient></defs><g><g fill=" #3f3d5" transform="matrix(11.134402852049911,0,0,11.134402852049911,40.93425600615839,158.792847477646)" stroke="#c8512e" stroke-width="0"><path d="M10.17 0L6.88 0Q6.70-0.32 6.56-0.95L6.56-0.95Q5.65 0.20 4.02 0.20L4.02 0.20Q2.53 0.20 1.48-0.71Q0.44-1.61 0.44-2.98L0.44-2.98Q0.44-4.70 1.71-5.58Q2.98-6.46 5.40-6.46L5.40-6.46L6.42-6.46L6.42-7.01Q6.42-8.47 5.16-8.47L5.16-8.47Q3.98-8.47 3.98-7.31L3.98-7.31L0.69-7.31Q0.69-8.85 2.00-9.80Q3.30-10.76 5.32-10.76Q7.34-10.76 8.52-9.78Q9.69-8.79 9.72-7.07L9.72-7.07L9.72-2.39Q9.74-0.94 10.17-0.17L10.17-0.17L10.17 0ZM4.81-2.15L4.81-2.15Q5.43-2.15 5.83-2.41Q6.24-2.68 6.42-3.01L6.42-3.01L6.42-4.70L5.46-4.70Q3.74-4.70 3.74-3.15L3.74-3.15Q3.74-2.71 4.04-2.43Q4.35-2.15 4.81-2.15Z"></path></g></g></svg></svg><style>@media (prefers-color-scheme: light) { :root { filter: none; } }
@media (prefers-color-scheme: dark) { :root { filter: none; } }
</style></svg>